<svg width="782.959912109375px" height="201.81501464843748px" xmlns="http://www.w3.org/2000/svg" viewBox="-141.47995605468748 -25.90750732421874 782.959912109375 201.81501464843748" style="background: none;" preserveAspectRatio="xMidYMid"><defs><filter id="editing-extrude-glow"><feFlood flood-color="rgba(28.627450980392155%,12.156862745098035%,22.4156862745098%,0.599)" result="flood-1"></feFlood><feMorphology operator="erode" radius="1" in="SourceAlpha" result="erode"></feMorphology><feComposite operator="in" in="flood-1" in2="erode" result="comp1"></feComposite><feConvolveMatrix order="3,3" divisor="1" in="comp1" result="convolve" kernelMatrix="0 0 0 1 1 1 0 0 0"></feConvolveMatrix><feOffset dx="-3" dy="0" in="convolve" result="extrude"></feOffset><feComposite operator="in" in="flood-1" in2="extrude" result="comp-extrude"></feComposite><feFlood flood-color="#6b5b4b" result="flood-2"></feFlood><feComposite operator="in" in="flood-2" in2="SourceAlpha" result="comp2"></feComposite><feMorphology operator="dilate" radius="1" in="comp2" result="dilate"></feMorphology><feOffset dx="-4.5" dy="0" in="dilate" result="offset"></feOffset><feGaussianBlur in="offset" stdDeviation="5.8" result="blur"></feGaussianBlur><feComponentTransfer in="blur" result="shadow"><feFuncA type="linear" slope="0.8" intercept="-0.2"></feFuncA></feComponentTransfer><feMerge><feMergeNode in="shadow"></feMergeNode><feMergeNode in="comp-extrude"></feMergeNode><feMergeNode in="SourceGraphic"></feMergeNode></feMerge></filter></defs><g filter="url(#editing-extrude-glow)"><g transform="translate(-20.7081241607666, 132.24500274658203)"><path d="M20.44-9.20L20.44-9.20L23.86-9.52L23.86-9.52Q24.29-9.52 24.29-9.31L24.29-9.31L24.29-9.31Q24.29-8.24 18.03-8.24L18.03-8.24L18.03-8.24Q11.77-8.24 6.96-11.66L6.96-11.66L6.96-11.66Q1.18-15.62 1.18-22.68L1.18-22.68L1.18-22.68Q1.18-46.12 41.62-57.03L41.62-57.03L41.62-57.03Q42.16-62.17 42.16-68.05L42.16-68.05L42.16-68.05Q42.16-68.69 42.80-68.80L42.80-68.80L42.80-68.80Q43.44-68.69 43.44-65.00L43.44-65.00L43.44-65.00Q43.44-61.31 43.23-57.46L43.23-57.46L52.22-59.60L52.22-59.60Q54.78-65.91 57.73-68.37L57.73-68.37L57.73-68.37Q60.67-70.83 67.20-70.83L67.20-70.83L67.20-70.83Q69.98-70.83 72.55-69.66L72.55-69.66L72.55-69.66Q75.54-67.94 75.54-65.48L75.54-65.48L75.54-65.48Q75.54-62.27 70.46-61.26L70.46-61.26L70.46-61.26Q65.38-60.24 58.42-59.17L58.42-59.17L58.42-59.17Q50.08-32.42 48.79-28.57L48.79-28.57L48.79-28.57Q36.17 9.31 11.88 21.93L11.88 21.93L11.88 21.93Q6.96 24.61 0.91 24.61L0.91 24.61L0.91 24.61Q-5.14 24.61-11.50 19.47L-11.50 19.47L-11.50 19.47Q-17.87 14.34-17.87 8.03L-17.87 8.03L-17.87 8.03Q-17.87 7.28-17.44 7.28L-17.44 7.28L-17.44 7.28Q-17.33 7.28-17.07 8.13L-17.07 8.13L-17.07 8.13Q-16.80 8.99-15.52 11.98L-15.52 11.98L-15.52 11.98Q-11.34 20.44-0.43 20.44L-0.43 20.44L-0.43 20.44Q5.99 20.44 12.30 17.23L12.30 17.23L12.30 17.23Q25.36 10.49 33.06-3.00L33.06-3.00L33.06-3.00Q37.88-11.66 43.55-30.50L43.55-30.50L43.55-30.50Q46.33-40.13 51.57-57.89L51.57-57.89L43.01-55.75L43.01-55.75Q41.20-37.45 33.49-18.19L33.49-18.19L33.49-18.19Q24.50 4.28 12.09 13.05L12.09 13.05L12.09 13.05Q6.42 16.91 2.46 16.91L2.46 16.91L2.46 16.91Q1.50 16.91 1.50 16.26L1.50 16.26L1.50 16.26Q1.50 15.62 2.35 15.41L2.35 15.41L2.35 15.41Q15.09 13.70 26.21-7.06L26.21-7.06L26.21-7.06Q38.52-29.85 41.52-55.32L41.52-55.32L41.52-55.32Q5.03-44.41 5.03-22.68L5.03-22.68L5.03-22.68Q5.03-16.37 9.47-12.79L9.47-12.79L9.47-12.79Q13.91-9.20 20.44-9.20ZM74.69-66.02L74.69-66.02L74.69-66.02Q74.69-69.66 68.91-69.66L68.91-69.66L68.91-69.66Q64.09-69.66 59.38-60.78L59.38-60.78L59.38-60.78Q62.49-61.10 72.01-63.13L72.01-63.13L72.01-63.13Q74.69-64.20 74.69-66.02ZM78.43-20.97L78.43-20.97L78.75-23.00L78.75-23.00Q78.75-24.72 77.63-25.84L77.63-25.84L77.63-25.84Q76.50-26.96 75.01-26.96L75.01-26.96L75.01-26.96Q73.72-13.91 68.69-6.96L68.69-6.96L72.01-6.96L72.01-6.96Q70.62-6.10 69.92-6.10L69.92-6.10L69.92-6.10Q69.23-6.10 68.96-6.21L68.96-6.21L68.96-6.21Q68.69-6.31 68.37-6.31L68.37-6.31L68.37-6.31Q68.48-6.21 67.78-5.62L67.78-5.62L67.78-5.62Q67.09-5.03 63.77-2.14L63.77-2.14L63.77-2.14Q60.45 0.75 57.57 0.75L57.57 0.75L57.57 0.75Q53.39 0.75 53.39-4.60L53.39-4.60L53.39-4.60Q53.39-11.13 58.31-17.98L58.31-17.98L58.31-17.98Q56.60-22.15 56.60-26.80L56.60-26.80L56.60-26.80Q56.60-31.46 58.42-34.88L58.42-34.88L58.42-34.88Q61.95-41.62 67.20-41.62L67.20-41.62L67.20-41.62Q73.83-41.62 74.90-30.28L74.90-30.28L74.90-30.28Q80.25-30.07 80.25-24.72L80.25-24.72L80.25-24.72Q80.25-20.33 78.86-20.33L78.86-20.33L78.86-20.33Q78.43-20.33 78.43-20.97ZM67.30-39.27L67.30-39.27L67.30-39.27Q63.88-39.27 60.99-32.53L60.99-32.53L60.99-32.53Q59.17-28.46 59.17-24.72L59.17-24.72L59.17-24.72Q59.17-20.97 59.49-19.15L59.49-19.15L59.49-19.15Q66.02-27.93 73.19-30.07L73.19-30.07L73.19-30.07Q71.05-39.27 67.30-39.27ZM73.30-27.07L73.30-27.07L73.30-27.07Q70.94-26.75 65.97-22.74L65.97-22.74L65.97-22.74Q60.99-18.72 59.81-16.37L59.81-16.37L59.81-16.37Q62.06-8.24 65.27-7.49L65.27-7.49L65.27-7.49Q67.84-9.84 70.57-16.80L70.57-16.80L70.57-16.80Q73.30-23.75 73.30-27.07ZM59.06-15.41L59.06-15.41L59.06-15.41Q55.53-9.42 55.53-5.94L55.53-5.94L55.53-5.94Q55.53-2.46 57.89-2.46L57.89-2.46L57.89-2.46Q60.78-2.46 64.84-6.96L64.84-6.96L64.84-6.96Q61.31-7.38 59.06-15.41ZM80.04 0.86L80.04 0.64L86.03-26.43L86.03-26.43Q85.60-27.93 83.67-32.21L83.67-32.21L83.67-32.21Q83.67-32.96 85.49-33.60L85.49-33.60L85.49-33.60Q90.84-35.63 92.39-35.63L92.39-35.63L92.39-35.63Q93.95-35.63 93.95-34.67L93.95-34.67L93.95-34.67Q89.99-24.82 88.49-20.97L88.49-20.97L88.49-20.97Q88.49-20.65 88.49-20.33L88.49-20.33L88.49-20.33Q88.49-17.01 87.53-17.01L87.53-17.01L87.53-17.01Q87.31-17.01 87.20-17.33L87.20-17.33L87.20-17.33Q84.96-10.59 84.10-7.49L84.10-7.49L84.10-7.49Q89.02-15.52 94.16-21.51L94.16-21.51L94.16-21.51Q102.19-30.82 107.43-30.82L107.43-30.82L107.43-30.82Q109.89-30.82 109.89-28.89L109.89-28.89L109.89-28.89Q109.89-28.14 103.68-5.35L103.68-5.35L103.68-5.35Q109.89-9.95 113.31-15.19L113.31-15.19L113.31-15.19Q113.85-15.84 114.12-15.84L114.12-15.84L114.12-15.84Q114.38-15.84 114.38-15.52L114.38-15.52L114.38-15.52Q114.38-15.19 114.06-14.66L114.06-14.66L114.06-14.66Q109.35-6.31 102.61-1.39L102.61-1.39L102.61-1.39Q102.08-0.75 101.28-0.75L101.28-0.75L101.28-0.75Q100.47-0.75 100.47-1.71L100.47-1.71L100.47-1.71Q100.47-2.67 101.76-8.99L101.76-8.99L101.76-8.99Q103.04-15.30 103.63-18.62L103.63-18.62L103.63-18.62Q104.22-21.93 104.43-26.96L104.43-26.96L104.43-26.96Q100.04-24.82 93.63-17.76L93.63-17.76L93.63-17.76Q87.20-10.70 85.12-6.74L85.12-6.74L85.12-6.74Q83.03-2.78 82.44-0.27L82.44-0.27L82.44-0.27Q81.85 2.25 80.95 2.25L80.95 2.25L80.95 2.25Q80.04 2.25 80.04 0.86L80.04 0.86ZM86.67-29.32L87.63-32.85L87.63-32.85Q87.10-32.42 85.60-31.78L85.60-31.78L86.67-29.32ZM147.34-13.48L147.34-13.48Q147.98-14.34 148.30-14.34L148.30-14.34L148.30-14.34Q148.62-14.34 148.62-13.86L148.62-13.86L148.62-13.86Q148.62-13.38 148.19-12.84L148.19-12.84L148.19-12.84Q138.56 1.50 133.32 1.50L133.32 1.50L133.32 1.50Q130.43 1.50 128.99-1.23L128.99-1.23L128.99-1.23Q127.54-3.96 127.54-7.33L127.54-7.33L127.54-7.33Q127.54-10.70 128.61-15.09L128.61-15.09L128.61-15.09Q121.87-0.11 114.70-0.11L114.70-0.11L114.70-0.11Q110.32-0.11 110.32-5.78L110.32-5.78L110.32-5.78Q110.32-14.87 119.14-24.72L119.14-24.72L119.14-24.72Q127.97-34.56 136.75-34.56L136.75-34.56L136.75-34.56Q140.92-34.56 140.92-30.92L140.92-30.92L140.92-30.92Q140.92-26.43 134.93-21.93L134.93-21.93L134.93-21.93Q131.82-14.23 131.82-7.12L131.82-7.12L131.82-7.12Q131.82 0 134.50 0L134.50 0L134.50 0Q138.03 0 147.34-13.48L147.34-13.48ZM136.00-25.57L136.00-25.57L136.00-25.57Q137.71-27.93 137.71-30.28L137.71-30.28L137.71-30.28Q137.71-32.63 135.46-32.63L135.46-32.63L135.46-32.63Q130.11-32.63 121.44-22.10L121.44-22.10L121.44-22.10Q112.78-11.56 112.78-5.88L112.78-5.88L112.78-5.88Q112.78-3.42 115.13-3.42L115.13-3.42L115.13-3.42Q121.87-3.42 128.19-18.40L128.19-18.40L128.19-18.40Q126.26-17.87 125.62-17.87L125.62-17.87L125.62-17.87Q124.98-17.87 124.98-18.19L124.98-18.19L124.98-18.19Q124.98-18.72 126.47-19.26L126.47-19.26L129.79-21.19L129.79-21.19Q130.00-23.00 132.04-25.95L132.04-25.95L132.04-25.95Q134.07-28.89 135.89-28.89L135.89-28.89L135.89-28.89Q136.53-28.89 136.53-28.03L136.53-28.03L136.53-28.03Q136.53-27.18 136.00-25.57ZM185.43-34.45L185.43-34.45L185.43-34.45Q185.43-32.63 167.35-27.50L167.35-27.50L167.35-27.50Q162.53-18.19 161.46-15.62L161.46-15.62L161.46-15.62Q158.68-8.99 158.68-2.89L158.68-2.89L158.68-2.89Q158.68 0.64 161.03 0.64L161.03 0.64L161.03 0.64Q163.92 0.64 168.63-3.42L168.63-3.42L173.45-7.60L173.45-7.60Q173.77-7.60 173.77-7.28L173.77-7.28L173.77-7.28Q173.77-6.96 173.45-6.31L173.45-6.31L173.45-6.31Q171.74-3.75 167.67-0.59L167.67-0.59L167.67-0.59Q163.60 2.57 161.25 2.57L161.25 2.57L161.25 2.57Q155.90 2.57 155.90-3.96L155.90-3.96L155.90-3.96Q155.90-8.67 158.25-15.62L158.25-15.62L158.25-15.62Q157.18-18.62 153.97-20.01L153.97-20.01L153.97-20.01Q153.01-20.44 151.08-21.19L151.08-21.19L151.08-21.19Q149.16-21.93 147.98-22.47L147.98-22.47L147.98-22.47Q146.80-23.00 146.80-24.66L146.80-24.66L146.80-24.66Q146.80-26.32 148.30-26.64L148.30-26.64L151.19-26.64L151.19-26.64Q156.75-26.64 163.07-27.93L163.07-27.93L173.34-50.93L173.34-50.93Q174.09-52.86 176.92-52.86L176.92-52.86L176.92-52.86Q179.76-52.86 179.76-51.79L179.76-51.79L179.76-51.79Q179.76-51.47 175.75-42.64L175.75-42.64L175.75-42.64Q171.74-33.81 171.31-33.38L171.31-33.38L169.49-31.67L168.20-29.10L168.20-29.10Q170.77-29.85 183.83-34.45L183.83-34.45L183.83-34.45Q184.90-34.67 185.16-34.67L185.16-34.67L185.16-34.67Q185.43-34.67 185.43-34.45ZM162.32-26.11L162.32-26.11L162.32-26.11Q156.33-24.72 151.51-23.97L151.51-23.97L151.51-23.97Q157.08-21.08 158.68-17.12L158.68-17.12L158.68-17.12Q159.75-20.12 162.32-26.11ZM203.30-32.21L203.30-32.21L202.34-24.07L202.34-24.07Q202.34-17.55 204.26-10.91L204.26-10.91L204.26-10.91Q207.04-1.71 211.86-1.71L211.86-1.71L211.86-1.71Q212.72-1.71 214-2.25L214-2.25L214-2.25Q215.28-2.78 215.50-2.78L215.50-2.78L215.50-2.78Q216.35-2.78 216.35-1.82L216.35-1.82L216.35-1.82Q216.35-0.86 214.16 0L214.16 0L214.16 0Q211.97 0.86 210.79 0.86L210.79 0.86L210.79 0.86Q205.33 0.86 201.32-7.38L201.32-7.38L201.32-7.38Q197.31-15.62 197.31-22.36L197.31-22.36L197.31-22.36Q197.31-23.65 197.41-24.18L197.41-24.18L197.41-24.18Q193.88-19.05 182.11-7.92L182.11-7.92L182.11-7.92Q180.72-3.21 179.76 1.50L179.76 1.50L179.76 1.50Q179.01 4.39 176.23 4.39L176.23 4.39L176.23 4.39Q174.94 4.39 175.16 3.53L175.16 3.53L175.16 3.53Q174.84 2.67 173.61 0.80L173.61 0.80L173.61 0.80Q172.38-1.07 172.38-1.71L172.38-1.71L172.38-1.71Q172.38-2.35 173.13-2.46L173.13-2.46L173.13-2.46Q175.05-3.64 177.94-6.21L177.94-6.21L177.94-6.21Q184.47-25.25 200.30-60.24L200.30-60.24L200.30-60.24Q200.52-60.67 200.95-61.85L200.95-61.85L200.95-61.85Q201.69-63.88 203.09-66.34L203.09-66.34L203.09-66.34Q204.26-68.80 208.76-68.80L208.76-68.80L208.76-68.80Q210.36-68.80 210.36-68.05L210.36-68.05L210.36-68.05Q210.36-68.05 203.94-55.96L203.94-55.96L203.94-55.96Q188.96-27.61 183.29-11.34L183.29-11.34L183.29-11.34Q195.81-23.86 199.88-31.99L199.88-31.99L199.88-31.99Q200.52-33.06 201.91-33.06L201.91-33.06L201.91-33.06Q203.30-33.06 203.30-32.21ZM176.87-3.00L176.87-3.00L174.62-1.18L174.62-1.18Q175.16-0.43 175.69 1.07L175.69 1.07L175.69 1.07Q176.55-2.14 176.87-3.00ZM248.99-13.48L248.99-13.48Q249.63-14.34 249.95-14.34L249.95-14.34L249.95-14.34Q250.27-14.34 250.27-13.86L250.27-13.86L250.27-13.86Q250.27-13.38 249.84-12.84L249.84-12.84L249.84-12.84Q240.22 1.50 234.97 1.50L234.97 1.50L234.97 1.50Q232.08 1.50 230.64-1.23L230.64-1.23L230.64-1.23Q229.19-3.96 229.19-7.33L229.19-7.33L229.19-7.33Q229.19-10.70 230.26-15.09L230.26-15.09L230.26-15.09Q223.52-0.11 216.35-0.11L216.35-0.11L216.35-0.11Q211.97-0.11 211.97-5.78L211.97-5.78L211.97-5.78Q211.97-14.87 220.79-24.72L220.79-24.72L220.79-24.72Q229.62-34.56 238.40-34.56L238.40-34.56L238.40-34.56Q242.57-34.56 242.57-30.92L242.57-30.92L242.57-30.92Q242.57-26.43 236.58-21.93L236.58-21.93L236.58-21.93Q233.47-14.23 233.47-7.12L233.47-7.12L233.47-7.12Q233.47 0 236.15 0L236.15 0L236.15 0Q239.68 0 248.99-13.48L248.99-13.48ZM237.65-25.57L237.65-25.57L237.65-25.57Q239.36-27.93 239.36-30.28L239.36-30.28L239.36-30.28Q239.36-32.63 237.11-32.63L237.11-32.63L237.11-32.63Q231.76-32.63 223.09-22.10L223.09-22.10L223.09-22.10Q214.43-11.56 214.43-5.88L214.43-5.88L214.43-5.88Q214.43-3.42 216.78-3.42L216.78-3.42L216.78-3.42Q223.52-3.42 229.84-18.40L229.84-18.40L229.84-18.40Q227.91-17.87 227.27-17.87L227.27-17.87L227.27-17.87Q226.63-17.87 226.63-18.19L226.63-18.19L226.63-18.19Q226.63-18.72 228.12-19.26L228.12-19.26L231.44-21.19L231.44-21.19Q231.66-23.00 233.69-25.95L233.69-25.95L233.69-25.95Q235.72-28.89 237.54-28.89L237.54-28.89L237.54-28.89Q238.18-28.89 238.18-28.03L238.18-28.03L238.18-28.03Q238.18-27.18 237.65-25.57ZM247.71 0.86L247.71 0.64L253.70-26.43L253.70-26.43Q253.27-27.93 251.34-32.21L251.34-32.21L251.34-32.21Q251.34-32.96 253.16-33.60L253.16-33.60L253.16-33.60Q258.51-35.63 260.06-35.63L260.06-35.63L260.06-35.63Q261.62-35.63 261.62-34.67L261.62-34.67L261.62-34.67Q257.66-24.82 256.16-20.97L256.16-20.97L256.16-20.97Q256.16-20.65 256.16-20.33L256.16-20.33L256.16-20.33Q256.16-17.01 255.19-17.01L255.19-17.01L255.19-17.01Q254.98-17.01 254.87-17.33L254.87-17.33L254.87-17.33Q252.63-10.59 251.77-7.49L251.77-7.49L251.77-7.49Q256.69-15.52 261.83-21.51L261.83-21.51L261.83-21.51Q269.85-30.82 275.10-30.82L275.10-30.82L275.10-30.82Q277.56-30.82 277.56-28.89L277.56-28.89L277.56-28.89Q277.56-28.14 271.35-5.35L271.35-5.35L271.35-5.35Q277.56-9.95 280.98-15.19L280.98-15.19L280.98-15.19Q281.52-15.84 281.78-15.84L281.78-15.84L281.78-15.84Q282.05-15.84 282.05-15.52L282.05-15.52L282.05-15.52Q282.05-15.19 281.73-14.66L281.73-14.66L281.73-14.66Q277.02-6.31 270.28-1.39L270.28-1.39L270.28-1.39Q269.75-0.75 268.94-0.75L268.94-0.75L268.94-0.75Q268.14-0.75 268.14-1.71L268.14-1.71L268.14-1.71Q268.14-2.67 269.43-8.99L269.43-8.99L269.43-8.99Q270.71-15.30 271.30-18.62L271.30-18.62L271.30-18.62Q271.89-21.93 272.10-26.96L272.10-26.96L272.10-26.96Q267.71-24.82 261.29-17.76L261.29-17.76L261.29-17.76Q254.87-10.70 252.79-6.74L252.79-6.74L252.79-6.74Q250.70-2.78 250.11-0.27L250.11-0.27L250.11-0.27Q249.52 2.25 248.61 2.25L248.61 2.25L248.61 2.25Q247.71 2.25 247.71 0.86L247.71 0.86ZM254.34-29.32L255.30-32.85L255.30-32.85Q254.77-32.42 253.27-31.78L253.27-31.78L254.34-29.32ZM338.12-21.83L338.12-21.83L338.12-21.83Q361.98-23.00 363.05-23.00L363.05-23.00L363.05-23.00Q364.12-23.00 364.12-22.68L364.12-22.68L364.12-22.68Q364.12-21.83 361.87-21.29L361.87-21.29L361.87-21.29Q347.64-21.29 336.94-19.37L336.94-19.37L336.94-19.37Q329.13-4.92 318.43 6.53L318.43 6.53L318.43 6.53Q320.36 7.06 322.66 7.49L322.66 7.49L322.66 7.49Q324.96 7.92 324.96 8.24L324.96 8.24L324.96 8.24Q324.96 8.77 323.35 8.77L323.35 8.77L323.35 8.77Q321.75 8.77 317.58 7.38L317.58 7.38L317.58 7.38Q302.27 23.43 289.97 23.43L289.97 23.43L289.97 23.43Q284.62 23.43 284.62 19.79L284.62 19.79L284.62 19.79Q284.62 17.66 285.48 17.01L285.48 17.01L285.48 18.08L285.48 18.08Q285.48 22.04 289.97 22.04L289.97 22.04L289.97 22.04Q300.99 22.04 314.15 6.21L314.15 6.21L314.15 6.21Q311.69 5.14 310.41 4.28L310.41 4.28L310.41 4.28Q300.24 17.01 292.64 17.01L292.64 17.01L292.64 17.01Q291.68 17.01 291.68 16.42L291.68 16.42L291.68 16.42Q291.68 15.84 292.27 15.68L292.27 15.68L292.27 15.68Q292.86 15.52 295.21 15.09L295.21 15.09L295.21 15.09Q301.85 13.05 309.44 3.64L309.44 3.64L309.44 3.64Q304.20-0.21 304.20-5.03L304.20-5.03L304.20-5.03Q304.20-9.84 311.48-14.34L311.48-14.34L311.48-14.34Q316.72-17.66 323.35-19.37L323.35-19.37L323.35-19.37Q333.95-42.59 334.80-63.13L334.80-63.13L334.80-63.13Q333.20-63.77 330.95-63.77L330.95-63.77L330.95-63.77Q323.25-63.77 314.79-57.35L314.79-57.35L314.79-57.35Q306.34-50.93 306.34-44.03L306.34-44.03L306.34-44.03Q306.34-37.13 315.54-32.42L315.54-32.42L315.54-32.42Q315.86-32.31 315.86-31.67L315.86-31.67L315.86-31.67Q315.86-31.03 315.12-31.03L315.12-31.03L314.69-31.03L314.69-31.03Q309.98-32.96 306.18-36.59L306.18-36.59L306.18-36.59Q302.38-40.23 302.38-44.62L302.38-44.62L302.38-44.62Q302.38-50.72 309.12-56.17L309.12-56.17L309.12-56.17Q314.47-60.78 320.41-62.70L320.41-62.70L320.41-62.70Q326.35-64.63 331.59-64.63L331.59-64.63L331.59-64.63Q332.88-64.63 334.80-64.41L334.80-64.41L334.80-68.05L334.80-68.05Q334.80-68.91 335.44-68.91L335.44-68.91L335.44-68.91Q335.87-68.91 335.98-64.20L335.98-64.20L335.98-64.20Q346.89-61.95 346.89-49.43L346.89-49.43L346.89-49.43Q346.89-38.95 338.12-21.83ZM371.40 18.40L371.40 18.40L371.40 18.40Q359.31 18.40 359.31 4.60L359.31 4.60L359.31 4.60Q359.31-4.49 364.76-19.90L364.76-19.90L377.60-51.04L381.99-62.06L381.99-62.06Q382.95-64.52 383.65-64.52L383.65-64.52L383.65-64.52Q384.34-64.52 384.34-63.56L384.34-63.56L384.34-63.56Q384.34-61.74 378.83-45.80L378.83-45.80L378.83-45.80Q373.32-29.85 370.65-20.86L370.65-20.86L370.65-20.86Q366.15-4.81 366.15 4.39L366.15 4.39L366.15 4.39Q366.15 16.91 373.75 16.91L373.75 16.91L373.75 16.91Q376.85 16.91 380.28 14.55L380.28 14.55L380.28 14.55Q383.38 12.30 391.19 5.03L391.19 5.03L391.41 5.14L391.41 5.14Q391.41 5.35 391.08 5.88L391.08 5.88L391.08 5.88Q387.55 11.02 382.15 14.71L382.15 14.71L382.15 14.71Q376.75 18.40 371.40 18.40ZM341.33-51.79L341.33-51.79L341.33-51.79Q341.33-60.03 335.98-62.59L335.98-62.59L335.98-62.59Q335.77-43.87 324.75-19.69L324.75-19.69L324.75-19.69Q328.92-20.76 331.70-21.08L331.70-21.08L331.70-21.08Q341.33-40.87 341.33-51.79ZM329.99-17.98L329.99-17.98L329.99-17.98Q324.00-16.16 322.71-15.62L322.71-15.62L322.71-15.62Q317.47-4.92 311.48 3.00L311.48 3.00L311.48 3.00Q312.87 4.39 315.01 5.14L315.01 5.14L315.01 5.14Q323.14-4.81 329.99-17.98ZM308.48-2.67L308.48-2.67L308.48-2.67Q308.48-0.11 310.62 2.25L310.62 2.25L310.62 2.25Q315.86-4.71 321.21-14.98L321.21-14.98L321.21-14.98Q308.48-9.20 308.48-2.67ZM411.41-13.48L411.41-13.48Q412.06-14.34 412.38-14.34L412.38-14.34L412.38-14.34Q412.70-14.34 412.70-13.86L412.70-13.86L412.70-13.86Q412.70-13.38 412.27-12.84L412.27-12.84L412.27-12.84Q402.64 1.50 397.40 1.50L397.40 1.50L397.40 1.50Q394.51 1.50 393.06-1.23L393.06-1.23L393.06-1.23Q391.62-3.96 391.62-7.33L391.62-7.33L391.62-7.33Q391.62-10.70 392.69-15.09L392.69-15.09L392.69-15.09Q385.95-0.11 378.78-0.11L378.78-0.11L378.78-0.11Q374.39-0.11 374.39-5.78L374.39-5.78L374.39-5.78Q374.39-14.87 383.22-24.72L383.22-24.72L383.22-24.72Q392.05-34.56 400.82-34.56L400.82-34.56L400.82-34.56Q405.00-34.56 405.00-30.92L405.00-30.92L405.00-30.92Q405.00-26.43 399.00-21.93L399.00-21.93L399.00-21.93Q395.90-14.23 395.90-7.12L395.90-7.12L395.90-7.12Q395.90 0 398.57 0L398.57 0L398.57 0Q402.11 0 411.41-13.48L411.41-13.48ZM400.07-25.57L400.07-25.57L400.07-25.57Q401.78-27.93 401.78-30.28L401.78-30.28L401.78-30.28Q401.78-32.63 399.54-32.63L399.54-32.63L399.54-32.63Q394.19-32.63 385.52-22.10L385.52-22.10L385.52-22.10Q376.85-11.56 376.85-5.88L376.85-5.88L376.85-5.88Q376.85-3.42 379.21-3.42L379.21-3.42L379.21-3.42Q385.95-3.42 392.26-18.40L392.26-18.40L392.26-18.40Q390.34-17.87 389.69-17.87L389.69-17.87L389.69-17.87Q389.05-17.87 389.05-18.19L389.05-18.19L389.05-18.19Q389.05-18.72 390.55-19.26L390.55-19.26L393.87-21.19L393.87-21.19Q394.08-23.00 396.11-25.95L396.11-25.95L396.11-25.95Q398.15-28.89 399.97-28.89L399.97-28.89L399.97-28.89Q400.61-28.89 400.61-28.03L400.61-28.03L400.61-28.03Q400.61-27.18 400.07-25.57ZM452.07-42.37L452.07-42.37L452.07-42.37Q452.07-42.05 451.11-41.78L451.11-41.78L451.11-41.78Q450.15-41.52 449.08-40.98L449.08-40.98L449.08-40.98Q444.26-37.56 440.73-22.68L440.73-22.68L440.73-22.68Q435.38 0.11 435.17 0.64L435.17 0.64L435.17 0.64Q431.00 15.52 426.18 24.18L426.18 24.18L426.18 24.18Q419.55 35.95 410.13 41.20L410.13 41.20L410.13 41.20Q405.74 43.66 400.29 43.66L400.29 43.66L400.29 43.66Q394.83 43.66 388.30 38.73L388.30 38.73L388.30 38.73Q381.78 33.81 381.78 28.46L381.78 28.46L381.78 28.46Q381.78 28.03 382.04 28.03L382.04 28.03L382.04 28.03Q382.31 28.03 382.63 28.68L382.63 28.68L382.63 28.68Q387.13 39.91 398.90 39.91L398.90 39.91L398.90 39.91Q404.89 39.91 410.02 37.02L410.02 37.02L410.02 37.02Q419.97 31.46 425.54 19.58L425.54 19.58L425.54 19.58Q429.07 11.56 432.07-3.32L432.07-3.32L432.07-3.32Q434.63-17.12 436.45-23.75L436.45-23.75L438.27-30.39L438.27-30.39Q431.53-25.14 422.11-0.32L422.11-0.32L422.11-0.32Q422.11-0.11 421.47-0.11L421.47-0.11L421.47-0.11Q420.83-0.11 420.03-0.91L420.03-0.91L420.03-0.91Q419.23-1.71 419.23-2.46L419.23-2.46L421.04-6.96L421.04-6.96Q423.08-12.95 423.08-24.50L423.08-24.50L423.08-24.50Q423.08-33.28 419.33-33.28L419.33-33.28L419.33-33.28Q417.30-33.28 414.30-30.60L414.30-30.60L411.31-27.82L411.31-27.82Q410.99-27.82 410.99-28.09L410.99-28.09L410.99-28.09Q410.99-28.36 411.20-29.00L411.20-29.00L411.20-29.00Q412.70-31.35 416.12-33.81L416.12-33.81L416.12-33.81Q419.55-36.27 421.90-36.27L421.90-36.27L421.90-36.27Q426.39-36.27 426.39-27.61L426.39-27.61L426.39-27.61Q426.39-20.54 423.51-11.98L423.51-11.98L423.51-11.98Q432.39-28.36 438.59-31.56L438.59-31.56L438.59-31.56Q440.20-37.34 442.23-39.70L442.23-39.70L442.23-39.70Q444.91-43.01 450.15-43.01L450.15-43.01L450.15-43.01Q452.07-43.01 452.07-42.37ZM483.11-13.48L483.11-13.48Q483.75-14.34 484.07-14.34L484.07-14.34L484.07-14.34Q484.39-14.34 484.39-13.86L484.39-13.86L484.39-13.86Q484.39-13.38 483.96-12.84L483.96-12.84L483.96-12.84Q474.33 1.50 469.09 1.50L469.09 1.50L469.09 1.50Q466.20 1.50 464.75-1.23L464.75-1.23L464.75-1.23Q463.31-3.96 463.31-7.33L463.31-7.33L463.31-7.33Q463.31-10.70 464.38-15.09L464.38-15.09L464.38-15.09Q457.64-0.11 450.47-0.11L450.47-0.11L450.47-0.11Q446.08-0.11 446.08-5.78L446.08-5.78L446.08-5.78Q446.08-14.87 454.91-24.72L454.91-24.72L454.91-24.72Q463.74-34.56 472.51-34.56L472.51-34.56L472.51-34.56Q476.69-34.56 476.69-30.92L476.69-30.92L476.69-30.92Q476.69-26.43 470.69-21.93L470.69-21.93L470.69-21.93Q467.59-14.23 467.59-7.12L467.59-7.12L467.59-7.12Q467.59 0 470.26 0L470.26 0L470.26 0Q473.80 0 483.11-13.48L483.11-13.48ZM471.76-25.57L471.76-25.57L471.76-25.57Q473.47-27.93 473.47-30.28L473.47-30.28L473.47-30.28Q473.47-32.63 471.23-32.63L471.23-32.63L471.23-32.63Q465.88-32.63 457.21-22.10L457.21-22.10L457.21-22.10Q448.54-11.56 448.54-5.88L448.54-5.88L448.54-5.88Q448.54-3.42 450.90-3.42L450.90-3.42L450.90-3.42Q457.64-3.42 463.95-18.40L463.95-18.40L463.95-18.40Q462.03-17.87 461.38-17.87L461.38-17.87L461.38-17.87Q460.74-17.87 460.74-18.19L460.74-18.19L460.74-18.19Q460.74-18.72 462.24-19.26L462.24-19.26L465.56-21.19L465.56-21.19Q465.77-23.00 467.80-25.95L467.80-25.95L467.80-25.95Q469.84-28.89 471.66-28.89L471.66-28.89L471.66-28.89Q472.30-28.89 472.30-28.03L472.30-28.03L472.30-28.03Q472.30-27.18 471.76-25.57ZM512.21-15.94L512.21-15.94L512.21-15.94Q512.53-15.94 512.53-15.52L512.53-15.52L512.53-15.52Q512.53-15.09 512.32-14.77L512.32-14.77L512.32-14.77Q508.68-8.67 503.33-7.60L503.33-7.60L503.33-7.60Q503.01-3.85 501.03-1.28L501.03-1.28L501.03-1.28Q499.05 1.28 494.61 1.28L494.61 1.28L494.61 1.28Q490.17 1.28 486.21-2.94L486.21-2.94L486.21-2.94Q482.25-7.17 482.25-12.20L482.25-12.20L482.25-12.20Q482.25-15.52 483.96-15.52L483.96-15.52L483.96-15.52Q485.03-15.52 486.10-13.91L486.10-13.91L486.10-13.91Q489.31-21.40 495.20-30.82L495.20-30.82L495.20-30.82Q498.94-36.59 503.97-36.59L503.97-36.59L503.97-36.59Q505.04-36.59 506.48-35.79L506.48-35.79L506.48-35.79Q507.93-34.99 507.93-34.03L507.93-34.03L507.93-34.03Q507.93-33.28 507.02-33.28L507.02-33.28L507.02-33.28Q506.11-33.28 505.68-33.38L505.68-33.38L504.83-33.38L504.83-33.38Q502.36-33.38 500.60-31.94L500.60-31.94L500.60-31.94Q498.83-30.50 498.83-28.94L498.83-28.94L498.83-28.94Q498.83-27.39 499.15-26.43L499.15-26.43L501.72-17.87L501.72-17.87Q503.22-12.52 503.22-9.10L503.22-9.10L503.22-9.10Q506.11-9.52 507.77-10.91L507.77-10.91L507.77-10.91Q509.43-12.30 511.57-15.52L511.57-15.52L511.57-15.52Q511.89-15.94 512.21-15.94ZM498.83-7.70L498.83-7.70L498.83-7.70Q498.94-8.24 498.94-9.95L498.94-9.95L498.94-9.95Q498.94-11.66 497.39-17.98L497.39-17.98L497.39-17.98Q495.84-24.29 495.84-25.89L495.84-25.89L495.84-25.89Q495.84-27.50 495.94-27.93L495.94-27.93L495.94-27.93Q493.16-25.04 486.85-12.52L486.85-12.52L486.85-12.52Q491.34-9.95 493.59-8.93L493.59-8.93L493.59-8.93Q495.84-7.92 498.83-7.70ZM493.06-2.25L493.06-2.25L493.06-2.25Q497.23-2.25 498.73-6.42L498.73-6.42L498.73-6.42Q490.17-6.42 485.67-9.95L485.67-9.95L485.67-9.95Q485.89-7.49 488.24-4.87L488.24-4.87L488.24-4.87Q490.59-2.25 493.06-2.25ZM543.02-14.55L543.02-14.55L543.02-14.55Q543.13-14.55 543.13-14.23L543.13-14.23L543.13-14.23Q543.13-13.91 542.28-12.41L542.28-12.41L542.28-12.41Q538.96-7.06 532.65-2.51L532.65-2.51L532.65-2.51Q526.33 2.03 520.77 2.03L520.77 2.03L520.77 2.03Q513.17 2.03 513.17-7.81L513.17-7.81L513.17-7.81Q513.17-11.13 513.92-14.87L513.92-14.87L513.92-14.87Q512.96-15.73 512.21-17.23L512.21-17.23L512.21-17.23Q512.32-17.12 512.74-16.96L512.74-16.96L512.74-16.96Q513.17-16.80 513.55-16.64L513.55-16.64L513.55-16.64Q513.92-16.48 514.35-16.37L514.35-16.37L514.35-16.37Q515.42-21.61 520.88-27.18L520.88-27.18L520.88-27.18Q526.33-32.74 531.47-32.74L531.47-32.74L531.47-32.74Q532.65-32.74 532.65-32.47L532.65-32.47L532.65-32.47Q532.65-32.21 531.15-31.35L531.15-31.35L531.15-31.35Q527.19-29.21 523.76-24.72L523.76-24.72L523.76-24.72Q520.13-20.22 518.52-15.73L518.52-15.73L518.74-15.52L518.74-15.52Q523.87-15.52 529.44-20.44L529.44-20.44L529.44-20.44Q535-25.36 535-30.50L535-30.50L535-30.50Q535-31.99 534.20-33.33L534.20-33.33L534.20-33.33Q533.39-34.67 531.58-34.67L531.58-34.67L531.58-34.67Q529.76-34.67 527.03-33.01L527.03-33.01L527.03-33.01Q524.30-31.35 524.03-31.35L524.03-31.35L524.03-31.35Q523.76-31.35 523.76-31.46L523.76-31.46L523.76-31.46Q523.76-32.74 527.24-34.13L527.24-34.13L527.24-34.13Q530.72-35.52 532.91-35.52L532.91-35.52L532.91-35.52Q535.11-35.52 536.71-34.13L536.71-34.13L536.71-34.13Q538.32-32.74 538.32-30.28L538.32-30.28L538.32-30.28Q538.32-24.61 531.31-19.58L531.31-19.58L531.31-19.58Q524.30-14.55 518.09-14.02L518.09-14.02L518.09-14.02Q517.24-11.45 517.24-9.10L517.24-9.10L517.24-9.10Q517.24-0.21 523.66-0.21L523.66-0.21L523.66-0.21Q528.58-0.21 533.50-4.12L533.50-4.12L533.50-4.12Q538.42-8.03 541.42-13.05L541.42-13.05L541.42-13.05Q542.38-14.55 543.02-14.55Z" fill="#060408"></path></g></g><style>text {
  font-size: 64px;
  font-family: Arial Black;
  dominant-baseline: central;
  text-anchor: middle;
}</style></svg>