<svg width="346.5487548828125px" height="201.81501464843748px" xmlns="http://www.w3.org/2000/svg" viewBox="76.72562255859376 -25.90750732421874 346.5487548828125 201.81501464843748" style="background: none;" preserveAspectRatio="xMidYMid"><defs><filter id="editing-extrude-glow"><feFlood flood-color="rgba(28.627450980392155%,12.156862745098035%,22.4156862745098%,0.599)" result="flood-1"></feFlood><feMorphology operator="erode" radius="1" in="SourceAlpha" result="erode"></feMorphology><feComposite operator="in" in="flood-1" in2="erode" result="comp1"></feComposite><feConvolveMatrix order="3,3" divisor="1" in="comp1" result="convolve" kernelMatrix="0 0 0 1 1 1 0 0 0"></feConvolveMatrix><feOffset dx="-3" dy="0" in="convolve" result="extrude"></feOffset><feComposite operator="in" in="flood-1" in2="extrude" result="comp-extrude"></feComposite><feFlood flood-color="#6b5b4b" result="flood-2"></feFlood><feComposite operator="in" in="flood-2" in2="SourceAlpha" result="comp2"></feComposite><feMorphology operator="dilate" radius="1" in="comp2" result="dilate"></feMorphology><feOffset dx="-4.5" dy="0" in="dilate" result="offset"></feOffset><feGaussianBlur in="offset" stdDeviation="5.8" result="blur"></feGaussianBlur><feComponentTransfer in="blur" result="shadow"><feFuncA type="linear" slope="0.8" intercept="-0.2"></feFuncA></feComponentTransfer><feMerge><feMergeNode in="shadow"></feMergeNode><feMergeNode in="comp-extrude"></feMergeNode><feMergeNode in="SourceGraphic"></feMergeNode></feMerge></filter></defs><g filter="url(#editing-extrude-glow)"><g transform="translate(131.22593750059605, 122.72000122070312)"><path d="M25.57-19.79L25.57-19.79L25.57-19.79Q24.61-23.65 20.22-23.65L20.22-23.65L20.22-23.65Q12.63-23.65 8.03-16.05L8.03-16.05L8.03-16.05Q3.85-9.42 3.85-2.14L3.85-2.14L3.85-2.14Q3.85 5.14 7.06 9.31L7.06 9.31L7.06 9.31Q10.38 14.12 17.12 14.12L17.12 14.12L17.12 14.12Q20.12 14.12 23.54 13.16L23.54 13.16L23.54 13.16Q32.53 10.38 42.37-3.96L42.37-3.96L42.37-3.96Q49.65-14.34 55.21-27.39L55.21-27.39L55.21-27.39Q51.47-31.56 47.19-34.03L47.19-34.03L46.33-34.77L46.33-34.77Q46.87-35.31 47.72-35.31L47.72-35.31L47.72-35.31Q50.29-35.31 55.85-28.89L55.85-28.89L55.85-28.89Q62.17-43.87 65.70-60.56L65.70-60.56L65.70-60.56Q64.84-60.67 63.24-60.67L63.24-60.67L63.24-60.67Q53.61-60.67 43.87-57.78L43.87-57.78L43.87-57.78Q30.07-53.71 30.07-47.08L30.07-47.08L30.07-47.08Q30.07-45.26 31.14-43.76L31.14-43.76L32.21-42.27L32.21-42.27Q32.21-42.05 31.89-42.05L31.89-42.05L31.89-42.05Q30.60-42.05 28.78-44.51L28.78-44.51L28.78-44.51Q26.75-46.97 26.75-48.69L26.75-48.69L26.75-48.69Q26.75-53.50 39.22-57.99L39.22-57.99L39.22-57.99Q51.68-62.49 64.95-62.49L64.95-62.49L64.95-62.49Q69.44-62.49 70.94-61.74L70.94-61.74L70.94-61.74Q71.26-61.63 71.26-60.35L71.26-60.35L71.26-60.35Q71.26-54.78 67.14-43.17L67.14-43.17L67.14-43.17Q63.02-31.56 59.71-24.18L59.71-24.18L59.71-24.18Q61.31-22.47 62.38-20.76L62.38-20.76L62.38-20.76Q72.01-39.16 80.25-48.36L80.25-48.36L80.25-48.36Q93.30-63.02 108.39-63.02L108.39-63.02L108.39-63.02Q116.42-63.02 121.61-57.30L121.61-57.30L121.61-57.30Q126.80-51.57 126.80-43.55L126.80-43.55L126.80-43.55Q126.80-41.30 126.26-41.30L126.26-41.30L126.26-41.30Q125.94-41.30 125.94-43.12L125.94-43.12L125.94-43.12Q125.94-50.50 120.43-54.89L120.43-54.89L120.43-54.89Q114.92-59.28 107.11-59.28L107.11-59.28L107.11-59.28Q93.41-59.28 80.68-45.58L80.68-45.58L80.68-45.58Q72.33-36.27 63.13-19.79L63.13-19.79L63.13-19.79Q75.22-3.32 76.40-1.71L76.40-1.71L76.40-1.71Q85.28 10.06 90.95 13.91L90.95 13.91L90.95 13.91Q96.62 17.76 100.26 17.76L100.26 17.76L100.26 17.76Q106.04 17.76 106.04 10.43L106.04 10.43L106.04 10.43Q106.04 3.10 101.65-2.89L101.65-2.89L101.65-2.89Q101.33-3.21 101.33-3.48L101.33-3.48L101.33-3.48Q101.33-3.75 101.81-3.75L101.81-3.75L101.81-3.75Q102.29-3.75 102.72-3.00L102.72-3.00L102.72-3.00Q107.75 2.78 107.75 9.63L107.75 9.63L107.75 9.63Q107.75 14.55 104.75 17.87L104.75 17.87L104.75 17.87Q101.76 21.19 96.94 21.19L96.94 21.19L96.94 21.19Q89.88 21.19 82.18 14.45L82.18 14.45L82.18 14.45Q74.69 8.13 70.08-0.32L70.08-0.32L70.08-0.32Q68.48-3.53 65.59-9.47L65.59-9.47L65.59-9.47Q62.70-15.41 61.74-17.23L61.74-17.23L57.14-9.10L57.14-9.10Q48.58 6.21 43.87 6.21L43.87 6.21L43.87 6.21Q42.27 6.21 42.27 5.14L42.27 5.14L42.27 5.14Q42.27 4.60 43.66 4.49L43.66 4.49L43.66 4.49Q48.69 3.85 54.78-6.53L54.78-6.53L54.78-6.53Q55.53-7.70 61.10-18.30L61.10-18.30L61.10-18.30Q59.81-20.76 58.85-22.36L58.85-22.36L58.85-22.36Q40.55 15.30 17.44 15.30L17.44 15.30L17.44 15.30Q9.52 15.30 4.81 10.22L4.81 10.22L4.81 10.22Q0.11 5.14 0.11-3.37L0.11-3.37L0.11-3.37Q0.11-11.88 5.40-18.72L5.40-18.72L5.40-18.72Q10.70-25.57 19.15-25.57L19.15-25.57L19.15-25.57Q21.61-25.57 23.65-24.18L23.65-24.18L23.65-24.18Q25.89-23.00 25.89-20.54L25.89-20.54L25.89-20.54Q25.89-19.90 25.57-19.79ZM117.49-14.55L117.49-14.55L117.49-14.55Q117.59-14.55 117.59-14.23L117.59-14.23L117.59-14.23Q117.59-13.91 116.74-12.41L116.74-12.41L116.74-12.41Q113.42-7.06 107.11-2.51L107.11-2.51L107.11-2.51Q100.79 2.03 95.23 2.03L95.23 2.03L95.23 2.03Q87.63 2.03 87.63-7.81L87.63-7.81L87.63-7.81Q87.63-11.13 88.38-14.87L88.38-14.87L88.38-14.87Q87.42-15.73 86.67-17.23L86.67-17.23L86.67-17.23Q86.78-17.12 87.20-16.96L87.20-16.96L87.20-16.96Q87.63-16.80 88.01-16.64L88.01-16.64L88.01-16.64Q88.38-16.48 88.81-16.37L88.81-16.37L88.81-16.37Q89.88-21.61 95.34-27.18L95.34-27.18L95.34-27.18Q100.79-32.74 105.93-32.74L105.93-32.74L105.93-32.74Q107.11-32.74 107.11-32.47L107.11-32.47L107.11-32.47Q107.11-32.21 105.61-31.35L105.61-31.35L105.61-31.35Q101.65-29.21 98.23-24.72L98.23-24.72L98.23-24.72Q94.59-20.22 92.98-15.73L92.98-15.73L93.20-15.52L93.20-15.52Q98.33-15.52 103.90-20.44L103.90-20.44L103.90-20.44Q109.46-25.36 109.46-30.50L109.46-30.50L109.46-30.50Q109.46-31.99 108.66-33.33L108.66-33.33L108.66-33.33Q107.86-34.67 106.04-34.67L106.04-34.67L106.04-34.67Q104.22-34.67 101.49-33.01L101.49-33.01L101.49-33.01Q98.76-31.35 98.49-31.35L98.49-31.35L98.49-31.35Q98.23-31.35 98.23-31.46L98.23-31.46L98.23-31.46Q98.23-32.74 101.70-34.13L101.70-34.13L101.70-34.13Q105.18-35.52 107.37-35.52L107.37-35.52L107.37-35.52Q109.57-35.52 111.17-34.13L111.17-34.13L111.17-34.13Q112.78-32.74 112.78-30.28L112.78-30.28L112.78-30.28Q112.78-24.61 105.77-19.58L105.77-19.58L105.77-19.58Q98.76-14.55 92.56-14.02L92.56-14.02L92.56-14.02Q91.70-11.45 91.70-9.10L91.70-9.10L91.70-9.10Q91.70-0.21 98.12-0.21L98.12-0.21L98.12-0.21Q103.04-0.21 107.96-4.12L107.96-4.12L107.96-4.12Q112.89-8.03 115.88-13.05L115.88-13.05L115.88-13.05Q116.84-14.55 117.49-14.55ZM157.29-9.20L157.29-9.20L160.71-9.52L160.71-9.52Q161.14-9.52 161.14-9.31L161.14-9.31L161.14-9.31Q161.14-8.24 154.88-8.24L154.88-8.24L154.88-8.24Q148.62-8.24 143.81-11.66L143.81-11.66L143.81-11.66Q138.03-15.62 138.03-22.68L138.03-22.68L138.03-22.68Q138.03-46.12 178.48-57.03L178.48-57.03L178.48-57.03Q179.01-62.17 179.01-68.05L179.01-68.05L179.01-68.05Q179.01-68.69 179.65-68.80L179.65-68.80L179.65-68.80Q180.30-68.69 180.30-65.00L180.30-65.00L180.30-65.00Q180.30-61.31 180.08-57.46L180.08-57.46L189.07-59.60L189.07-59.60Q191.64-65.91 194.58-68.37L194.58-68.37L194.58-68.37Q197.52-70.83 204.05-70.83L204.05-70.83L204.05-70.83Q206.83-70.83 209.40-69.66L209.40-69.66L209.40-69.66Q212.40-67.94 212.40-65.48L212.40-65.48L212.40-65.48Q212.40-62.27 207.31-61.26L207.31-61.26L207.31-61.26Q202.23-60.24 195.28-59.17L195.28-59.17L195.28-59.17Q186.93-32.42 185.65-28.57L185.65-28.57L185.65-28.57Q173.02 9.31 148.73 21.93L148.73 21.93L148.73 21.93Q143.81 24.61 137.76 24.61L137.76 24.61L137.76 24.61Q131.72 24.61 125.35 19.47L125.35 19.47L125.35 19.47Q118.98 14.34 118.98 8.03L118.98 8.03L118.98 8.03Q118.98 7.28 119.41 7.28L119.41 7.28L119.41 7.28Q119.52 7.28 119.79 8.13L119.79 8.13L119.79 8.13Q120.05 8.99 121.34 11.98L121.34 11.98L121.34 11.98Q125.51 20.44 136.43 20.44L136.43 20.44L136.43 20.44Q142.84 20.44 149.16 17.23L149.16 17.23L149.16 17.23Q162.21 10.49 169.92-3.00L169.92-3.00L169.92-3.00Q174.73-11.66 180.40-30.50L180.40-30.50L180.40-30.50Q183.18-40.13 188.43-57.89L188.43-57.89L179.87-55.75L179.87-55.75Q178.05-37.45 170.34-18.19L170.34-18.19L170.34-18.19Q161.36 4.28 148.94 13.05L148.94 13.05L148.94 13.05Q143.27 16.91 139.31 16.91L139.31 16.91L139.31 16.91Q138.35 16.91 138.35 16.26L138.35 16.26L138.35 16.26Q138.35 15.62 139.21 15.41L139.21 15.41L139.21 15.41Q151.94 13.70 163.07-7.06L163.07-7.06L163.07-7.06Q175.37-29.85 178.37-55.32L178.37-55.32L178.37-55.32Q141.88-44.41 141.88-22.68L141.88-22.68L141.88-22.68Q141.88-16.37 146.32-12.79L146.32-12.79L146.32-12.79Q150.76-9.20 157.29-9.20ZM211.54-66.02L211.54-66.02L211.54-66.02Q211.54-69.66 205.76-69.66L205.76-69.66L205.76-69.66Q200.95-69.66 196.24-60.78L196.24-60.78L196.24-60.78Q199.34-61.10 208.86-63.13L208.86-63.13L208.86-63.13Q211.54-64.20 211.54-66.02ZM208.44-14.66L208.44-14.66L208.44-14.66Q208.65-14.66 208.65-14.45L208.65-14.45L208.65-14.45Q208.65-12.63 202.77-6.42L202.77-6.42L202.77-6.42Q198.06-1.71 195.60-1.71L195.60-1.71L195.60-1.71Q190.14-1.71 190.14-7.17L190.14-7.17L190.14-7.17Q190.14-11.23 192.28-17.44L192.28-17.44L190.35-14.45L190.35-14.45Q188.96-12.09 188.43-12.09L188.43-12.09L188.43-12.09Q188.21-12.09 188.21-12.68L188.21-12.68L188.21-12.68Q188.21-13.27 189.82-15.41L189.82-15.41L189.82-15.41Q191.42-17.55 194.53-24.18L194.53-24.18L194.53-24.18Q195.38-26.43 196.88-29.21L196.88-29.21L196.88-29.21Q197.42-30.17 199.39-30.17L199.39-30.17L199.39-30.17Q201.37-30.17 201.37-29.10L201.37-29.10L201.37-29.10Q201.37-28.03 200.30-25.89L200.30-25.89L200.30-25.89Q199.23-23.75 198.49-23.43L198.49-23.43L198.49-23.43Q192.92-12.30 192.92-7.06L192.92-7.06L192.92-7.06Q192.92-3.53 195.28-3.53L195.28-3.53L195.28-3.53Q199.13-3.53 203.73-9.10L203.73-9.10L203.73-9.10Q205.65-11.34 206.08-11.82L206.08-11.82L206.08-11.82Q206.51-12.30 206.94-12.84L206.94-12.84L206.94-12.84Q207.37-13.38 207.69-13.70L207.69-13.70L207.69-13.70Q208.22-14.23 208.44-14.66ZM205.12-43.76L205.12-43.76L205.12-43.76Q207.47-44.83 208.01-44.83L208.01-44.83L208.01-44.83Q208.54-44.83 208.54-44.57L208.54-44.57L208.54-44.57Q208.54-44.30 206.08-41.52L206.08-41.52L204.48-38.20L204.48-38.20Q203.51-36.06 202.02-36.06L202.02-36.06L202.02-36.06Q199.88-36.06 199.88-38.31L199.88-38.31L199.88-38.31Q199.88-39.38 201.32-41.03L201.32-41.03L201.32-41.03Q202.77-42.69 205.12-43.76ZM205.76 0.86L205.76 0.64L211.75-26.43L211.75-26.43Q211.33-27.93 209.40-32.21L209.40-32.21L209.40-32.21Q209.40-32.96 211.22-33.60L211.22-33.60L211.22-33.60Q216.57-35.63 218.12-35.63L218.12-35.63L218.12-35.63Q219.67-35.63 219.67-34.67L219.67-34.67L219.67-34.67Q215.71-24.82 214.21-20.97L214.21-20.97L214.21-20.97Q214.21-20.65 214.21-20.33L214.21-20.33L214.21-20.33Q214.21-17.01 213.25-17.01L213.25-17.01L213.25-17.01Q213.04-17.01 212.93-17.33L212.93-17.33L212.93-17.33Q210.68-10.59 209.83-7.49L209.83-7.49L209.83-7.49Q214.75-15.52 219.89-21.51L219.89-21.51L219.89-21.51Q227.91-30.82 233.15-30.82L233.15-30.82L233.15-30.82Q235.61-30.82 235.61-28.89L235.61-28.89L235.61-28.89Q235.61-28.14 229.41-5.35L229.41-5.35L229.41-5.35Q235.61-9.95 239.04-15.19L239.04-15.19L239.04-15.19Q239.57-15.84 239.84-15.84L239.84-15.84L239.84-15.84Q240.11-15.84 240.11-15.52L240.11-15.52L240.11-15.52Q240.11-15.19 239.79-14.66L239.79-14.66L239.79-14.66Q235.08-6.31 228.34-1.39L228.34-1.39L228.34-1.39Q227.80-0.75 227.00-0.75L227.00-0.75L227.00-0.75Q226.20-0.75 226.20-1.71L226.20-1.71L226.20-1.71Q226.20-2.67 227.48-8.99L227.48-8.99L227.48-8.99Q228.77-15.30 229.35-18.62L229.35-18.62L229.35-18.62Q229.94-21.93 230.16-26.96L230.16-26.96L230.16-26.96Q225.77-24.82 219.35-17.76L219.35-17.76L219.35-17.76Q212.93-10.70 210.84-6.74L210.84-6.74L210.84-6.74Q208.76-2.78 208.17-0.27L208.17-0.27L208.17-0.27Q207.58 2.25 206.67 2.25L206.67 2.25L206.67 2.25Q205.76 2.25 205.76 0.86L205.76 0.86ZM212.40-29.32L213.36-32.85L213.36-32.85Q212.82-32.42 211.33-31.78L211.33-31.78L212.40-29.32Z" fill="#060408"></path></g></g><style>text {
  font-size: 64px;
  font-family: Arial Black;
  dominant-baseline: central;
  text-anchor: middle;
}</style></svg>